<svg width="125" height="125" viewBox="0 0 125 125" fill="none" xmlns="http://www.w3.org/2000/svg">
<path d="M0 62.5C0 27.9822 27.9822 0 62.5 0C97.0178 0 125 27.9822 125 62.5V125H0V62.5Z" fill="#6FBFF9"/>
<path d="M32.4282 98.8469L39.0796 98.8469L39.0796 91.9637L32.4282 91.9637L32.4282 98.8469ZM87.8045 42.3845C87.8045 41.9189 87.4398 41.5415 86.9899 41.5415L79.6582 41.5415C79.2083 41.5415 78.8435 41.9189 78.8435 42.3845C78.8435 42.8501 79.2083 43.2275 79.6582 43.2275L86.1752 43.2275L86.1752 49.9716C86.1752 50.4372 86.54 50.8146 86.9899 50.8146C87.4398 50.8146 87.8045 50.4372 87.8045 49.9716L87.8045 42.3845ZM36.3299 96.0014L87.5659 42.9806L86.4138 41.7884L35.1779 94.8092L36.3299 96.0014Z" fill="#2D2D2D"/>
</svg>
