<svg width="13" height="13" viewBox="0 0 13 13" fill="none" xmlns="http://www.w3.org/2000/svg">
<path fill-rule="evenodd" clip-rule="evenodd" d="M6.36128 12.7226C9.87452 12.7226 12.7226 9.87452 12.7226 6.36128C12.7226 2.84804 9.87452 0 6.36128 0C2.84804 0 0 2.84804 0 6.36128C0 9.87452 2.84804 12.7226 6.36128 12.7226ZM11.0626 6.36128C11.0626 8.95773 8.95773 11.0626 6.36128 11.0626C3.76484 11.0626 1.66 8.95773 1.66 6.36128C1.66 3.76484 3.76484 1.66 6.36128 1.66C8.95773 1.66 11.0626 3.76484 11.0626 6.36128ZM6.36128 8.89274C7.75937 8.89274 8.89274 7.75937 8.89274 6.36128C8.89274 4.96319 7.75937 3.82982 6.36128 3.82982C4.96319 3.82982 3.82982 4.96319 3.82982 6.36128C3.82982 7.75937 4.96319 8.89274 6.36128 8.89274Z" fill="#2D2D2D"/>
</svg>
